<?xml version="1.0" encoding="iso-8859-1"?>
<!-- Generator: Adobe Illustrator 16.0.0, SVG Export Plug-In . SVG Version: 6.00 Build 0)  -->
<!DOCTYPE svg PUBLIC "-//W3C//DTD SVG 1.1//EN" "http://www.w3.org/Graphics/SVG/1.1/DTD/svg11.dtd">
<svg version="1.1" id="Capa_1" xmlns="http://www.w3.org/2000/svg" xmlns:xlink="http://www.w3.org/1999/xlink" x="0px" y="0px"
	 width="73.169px" height="73.169px" viewBox="0 0 73.169 73.169" style="enable-background:new 0 0 73.169 73.169;"
	 xml:space="preserve">
<g>
	<g id="Download_3_">
		<g>
			<path d="M68.912,62.662H4.257C1.906,62.662,0,64.58,0,66.957c0,2.369,1.906,4.287,4.257,4.287h64.655
				c2.352,0,4.257-1.918,4.257-4.287C73.169,64.58,71.264,62.662,68.912,62.662z M32.723,51.461
				c0.793,0.948,1.955,1.505,3.188,1.526h0.071c1.208,0,2.362-0.519,3.17-1.429L57.49,30.965c1.136-1.278,1.406-3.113,0.691-4.678
				c-0.719-1.558-2.302-2.521-3.99-2.482l-5.17,0.158V6.22c0-2.369-1.906-4.295-4.258-4.295h-16.45
				c-1.128,0-2.211,0.451-3.012,1.256c-0.798,0.805-1.249,1.903-1.249,3.039l0.004,17.743l-5.122-0.158
				c-1.67-0.045-3.23,0.902-3.96,2.422c-0.733,1.521-0.508,3.34,0.571,4.634L32.723,51.461z"/>
		</g>
	</g>
</g>
<g>
</g>
<g>
</g>
<g>
</g>
<g>
</g>
<g>
</g>
<g>
</g>
<g>
</g>
<g>
</g>
<g>
</g>
<g>
</g>
<g>
</g>
<g>
</g>
<g>
</g>
<g>
</g>
<g>
</g>
</svg>
