<svg id="Layer_1" data-name="Layer 1" xmlns="http://www.w3.org/2000/svg" viewBox="0 0 896.75 314.08"><defs><style>.cls-1{fill:#ff0;}.cls-2{fill:#fff;}</style></defs><title>ThunderGet</title><polygon class="cls-1" points="705.45 314.08 481.56 195.95 615.11 103.6 488.11 4.6 599.86 0 741.11 97.6 615.24 191.78 705.45 314.08 705.45 314.08"/><path class="cls-2" d="M530.11,483.37H493.35V470.1h89.48v13.27H545.89V591H530.11Z" transform="translate(-493.35 -328.28)"/><path class="cls-2" d="M594.48,463.65h15.78V517.8h.36a29.23,29.23,0,0,1,11.3-11.11,32.47,32.47,0,0,1,16.14-4.49c11.66,0,30.3,7.17,30.3,37.12V591H652.58V541.11c0-14-5.2-25.82-20.08-25.82-10.22,0-18.29,7.18-21.16,15.78a19.08,19.08,0,0,0-1.08,7.53V591H594.48Z" transform="translate(-493.35 -328.28)"/><path class="cls-2" d="M766.63,567.3c0,9,.18,16.85.72,23.67h-14l-.9-14.17h-.36a32.66,32.66,0,0,1-28.69,16.14c-13.63,0-29.95-7.53-29.95-38V504.17h15.79v48.06c0,16.5,5,27.62,19.36,27.62,10.58,0,17.93-7.35,20.8-14.35a23,23,0,0,0,1.44-8.07V504.17h15.78Z" transform="translate(-493.35 -328.28)"/><path class="cls-2" d="M792.81,527.67c0-9-.18-16.32-.72-23.5h14l.89,14.35h.36c4.3-8.25,14.35-16.32,28.69-16.32,12,0,30.67,7.17,30.67,36.94V591H850.91v-50c0-14-5.2-25.65-20.09-25.65-10.4,0-18.47,7.35-21.16,16.14a22.6,22.6,0,0,0-1.07,7.35V591H792.81Z" transform="translate(-493.35 -328.28)"/><path class="cls-2" d="M967.28,463.65v104.9c0,7.71.18,16.5.72,22.42H953.83l-.72-15.07h-.36c-4.84,9.69-15.42,17-29.58,17-21,0-37.12-17.75-37.12-44.11C885.87,520,903.8,502.2,925,502.2c13.27,0,22.24,6.28,26.18,13.27h.36V463.65ZM951.5,539.5a27.71,27.71,0,0,0-.72-6.63A23.2,23.2,0,0,0,928,514.58c-16.32,0-26,14.34-26,33.53,0,17.57,8.6,32.1,25.64,32.1,10.58,0,20.26-7,23.13-18.83a27.35,27.35,0,0,0,.72-6.82Z" transform="translate(-493.35 -328.28)"/><path class="cls-2" d="M1002.24,550.44c.36,21.34,14,30.13,29.77,30.13,11.3,0,18.11-2,24-4.49l2.69,11.3c-5.56,2.51-15.06,5.38-28.87,5.38-26.72,0-42.68-17.57-42.68-43.75s15.42-46.81,40.71-46.81c28.33,0,35.86,24.93,35.86,40.89a59.15,59.15,0,0,1-.54,7.35Zm46.27-11.3c.18-10-4.13-25.64-21.88-25.64-16,0-23,14.7-24.21,25.64Z" transform="translate(-493.35 -328.28)"/><path class="cls-2" d="M1083.29,531.25c0-10.22-.18-19-.71-27.08h13.8l.54,17h.72c3.94-11.66,13.45-19,24-19a17,17,0,0,1,4.48.54v14.88a24.24,24.24,0,0,0-5.38-.53c-11.12,0-19,8.42-21.16,20.26a44.2,44.2,0,0,0-.72,7.35V591h-15.6Z" transform="translate(-493.35 -328.28)"/><path class="cls-1" d="M1234.46,585.59a112.67,112.67,0,0,1-37.12,6.63c-18.29,0-33.36-4.66-45.19-16-10.4-10-16.86-26.18-16.86-45,.18-36,24.93-62.4,65.46-62.4,14,0,24.92,3,30.12,5.56l-3.77,12.73c-6.45-2.87-14.52-5.2-26.71-5.2-29.41,0-48.6,18.29-48.6,48.6,0,30.66,18.47,48.77,46.62,48.77,10.22,0,17.22-1.43,20.8-3.23V540h-24.56V527.49h39.81Z" transform="translate(-493.35 -328.28)"/><path class="cls-1" d="M1267.45,550.44c.36,21.34,14,30.13,29.76,30.13,11.3,0,18.12-2,24-4.49l2.69,11.3c-5.56,2.51-15.06,5.38-28.87,5.38-26.72,0-42.68-17.57-42.68-43.75s15.43-46.81,40.71-46.81c28.33,0,35.86,24.93,35.86,40.89a61.65,61.65,0,0,1-.53,7.35Zm46.26-11.3c.18-10-4.12-25.64-21.88-25.64-15.95,0-22.95,14.7-24.2,25.64Z" transform="translate(-493.35 -328.28)"/><path class="cls-1" d="M1367.5,479.25v24.92h22.6v12h-22.6V563c0,10.76,3,16.86,11.84,16.86a34.94,34.94,0,0,0,9.14-1.08l.72,11.84c-3,1.25-7.89,2.15-14,2.15-7.35,0-13.27-2.33-17-6.64-4.48-4.66-6.1-12.37-6.1-22.59V516.19h-13.45v-12h13.45v-20.8Z" transform="translate(-493.35 -328.28)"/></svg>